<?xml version="1.0" encoding="UTF-8" standalone="no"?>
<svg
   xmlns:dc="http://purl.org/dc/elements/1.1/"
   xmlns:cc="http://creativecommons.org/ns#"
   xmlns:rdf="http://www.w3.org/1999/02/22-rdf-syntax-ns#"
   xmlns:svg="http://www.w3.org/2000/svg"
   xmlns="http://www.w3.org/2000/svg"
   xmlns:sodipodi="http://sodipodi.sourceforge.net/DTD/sodipodi-0.dtd"
   xmlns:inkscape="http://www.inkscape.org/namespaces/inkscape"
   sodipodi:docname="pluplu.svg"
   inkscape:version="1.0 (4035a4f, 2020-05-01)"
   id="svg137"
   version="1.1"
   viewBox="0 0 77.787498 34.924999"
   height="34.924999mm"
   width="77.787498mm">
  <defs
     id="defs131" />
  <sodipodi:namedview
     inkscape:window-maximized="0"
     inkscape:window-y="26"
     inkscape:window-x="0"
     inkscape:window-height="874"
     inkscape:window-width="1440"
     showgrid="false"
     inkscape:document-rotation="0"
     inkscape:current-layer="layer1"
     inkscape:document-units="mm"
     inkscape:cy="97.428572"
     inkscape:cx="101.28571"
     inkscape:zoom="0.35"
     inkscape:pageshadow="2"
     inkscape:pageopacity="0.0"
     borderopacity="1.0"
     bordercolor="#666666"
     pagecolor="#ffffff"
     id="base" />
  <metadata
     id="metadata134">
    <rdf:RDF>
      <cc:Work
         rdf:about="">
        <dc:format>image/svg+xml</dc:format>
        <dc:type
           rdf:resource="http://purl.org/dc/dcmitype/StillImage" />
        <dc:title></dc:title>
      </cc:Work>
    </rdf:RDF>
  </metadata>
  <g
     transform="translate(-55.600299,-64.180357)"
     id="layer1"
     inkscape:groupmode="layer"
     inkscape:label="Layer 1">
    <!-- <path
       d="M 55.600299,99.105357 H 133.3878 v -34.925 H 55.600299 Z"
       style="fill:#283149;fill-opacity:1;fill-rule:nonzero;stroke:none;stroke-width:0.352777"
       id="path66" /> -->
    <path
       d="M 58.247512,95.089757 V 66.297024 h 4.118955 v 27.16939 h 20.721569 v 3.78686 h -22.42896 c -0.775836,0 -1.372524,-0.249415 -1.788693,-0.749655 -0.416168,-0.471276 -0.624251,-0.942586 -0.624251,-1.413862 z"
       style="fill:#0043ce;fill-opacity:1;fill-rule:nonzero;stroke:none;stroke-width:0.352777"
       id="path68" />
    <path
       d="m 88.408632,81.783403 c 0,-0.9398 0.192934,-1.88789 0.57739,-2.841484 0.355531,-0.941211 0.912283,-1.809397 1.667441,-2.607274 0.768948,-0.797878 1.681197,-1.431784 2.735403,-1.90306 1.054206,-0.483693 2.293056,-0.726228 3.717925,-0.726228 0.726228,0 1.446953,0.07856 2.159389,0.235656 0.683506,0.184643 1.31053,0.420299 1.87967,0.704179 0.59944,0.314184 1.13273,0.662834 1.60401,1.047291 0.49749,0.413421 0.92604,0.862648 1.28161,1.346341 l 0.0648,0.107492 -1.582,1.260898 -0.15021,-0.192934 c -0.61186,-0.782708 -1.33947,-1.42487 -2.18006,-1.922357 -0.825435,-0.485069 -1.852087,-0.727604 -3.077179,-0.727604 -0.869527,0 -1.701872,0.150213 -2.499749,0.449263 -0.813046,0.327977 -1.510311,0.762035 -2.094616,1.303619 -0.584272,0.527791 -1.06934,1.182335 -1.453833,1.966454 -0.3707,0.784119 -0.555344,1.616428 -0.555344,2.499748 0,0.727604 0.148838,1.467626 0.449228,2.222782 0.312843,0.78412 0.7469,1.474506 1.30362,2.073946 0.584306,0.627027 1.274691,1.139648 2.072569,1.537899 0.797912,0.399627 1.723953,0.59944 2.778125,0.59944 1.168612,0 2.173182,-0.199813 3.013779,-0.59944 0.8406,-0.384457 1.55995,-0.953594 2.15801,-1.70875 V 84.028234 H 96.081549 V 82.12655 l 8.356421,0.04272 v 3.91086 c 0,0.08544 -0.0152,0.184679 -0.0427,0.299049 -0.0427,0.0992 -0.0937,0.199814 -0.15021,0.299015 -0.32798,0.526415 -0.73311,0.990811 -1.21818,1.389062 -0.49886,0.41342 -1.06796,0.775864 -1.71016,1.090048 -0.66971,0.312808 -1.346339,0.541549 -2.029845,0.683507 -0.726229,0.170886 -1.453833,0.256293 -2.180061,0.256293 -1.125855,0 -2.215867,-0.213571 -3.270073,-0.640785 -1.083138,-0.440972 -2.00918,-1.025242 -2.778128,-1.752846 -0.811673,-0.755156 -1.453832,-1.638477 -1.923732,-2.649961 -0.483696,-0.982557 -0.726229,-2.072569 -0.726229,-3.270109 z m 41.820708,-4.744579 0.0634,0.107492 -1.58062,1.260898 -0.15021,-0.192934 c -0.61324,-0.782708 -1.33946,-1.42487 -2.18006,-1.922357 -0.82543,-0.485069 -1.85209,-0.727604 -3.07714,-0.727604 -0.86956,0 -1.70328,0.150213 -2.50116,0.449263 -0.81167,0.327977 -1.51031,0.762035 -2.09324,1.303619 -0.58427,0.527791 -1.06934,1.182335 -1.45384,1.966454 -0.37066,0.784119 -0.55534,1.616428 -0.55534,2.499748 0,0.727604 0.14884,1.467626 0.44789,2.222782 0.31418,0.78412 0.74824,1.474506 1.30362,2.073946 0.58427,0.627027 1.27603,1.139648 2.07394,1.537899 0.79788,0.399627 1.72392,0.59944 2.77813,0.59944 1.28157,0 2.34403,-0.221862 3.18463,-0.662834 0.85439,-0.456142 1.58887,-1.090013 2.20073,-1.90306 l 0.40651,-0.576015 1.64539,1.260898 -0.34177,0.384457 c -0.96873,1.18237 -2.00918,2.036763 -3.11986,2.564553 -1.15478,0.54155 -2.47908,0.811636 -3.97563,0.811636 -1.12586,0 -2.21591,-0.213571 -3.27011,-0.640785 -1.04041,-0.398251 -1.96645,-0.982522 -2.77813,-1.752847 -0.81163,-0.755156 -1.45383,-1.631597 -1.92373,-2.627912 -0.48369,-0.983933 -0.72623,-2.08086 -0.72623,-3.292158 0,-0.9398 0.19156,-1.88789 0.57739,-2.841484 0.35553,-0.941211 0.91091,-1.809397 1.66607,-2.607274 0.77032,-0.797878 1.6812,-1.43316 2.7354,-1.90306 1.05421,-0.483693 2.29443,-0.726228 3.71934,-0.726228 0.72623,0 1.44554,0.07856 2.15801,0.235656 0.68488,0.184643 1.31187,0.420299 1.88101,0.704179 0.59807,0.314184 1.13274,0.662834 1.60267,1.047291 0.49883,0.413421 0.92604,0.862648 1.28295,1.346341 z"
       style="fill:#e0e0e0;fill-opacity:1;fill-rule:nonzero;stroke:none;stroke-width:0.352777"
       id="path70" />
  </g>
</svg>
